<?xml version="1.0" encoding="utf-8" standalone="no"?>
<!DOCTYPE svg PUBLIC "-//W3C//DTD SVG 1.1//EN"
  "http://www.w3.org/Graphics/SVG/1.1/DTD/svg11.dtd">
<svg height="222.954375pt" version="1.1" viewBox="0 0 359.584313 222.954375" width="359.584313pt" xmlns="http://www.w3.org/2000/svg" xmlns:xlink="http://www.w3.org/1999/xlink">
 <metadata>
  <rdf:RDF xmlns:cc="http://creativecommons.org/ns#" xmlns:dc="http://purl.org/dc/elements/1.1/" xmlns:rdf="http://www.w3.org/1999/02/22-rdf-syntax-ns#">
   <cc:Work>
    <dc:type rdf:resource="http://purl.org/dc/dcmitype/StillImage"/>
    <dc:date>2022-04-05T16:33:19.199542</dc:date>
    <dc:format>image/svg+xml</dc:format>
    <dc:creator>
     <cc:Agent>
      <dc:title>Matplotlib v3.4.3, https://matplotlib.org/</dc:title>
     </cc:Agent>
    </dc:creator>
   </cc:Work>
  </rdf:RDF>
 </metadata>
 <defs>
  <style type="text/css">*{stroke-linecap:butt;stroke-linejoin:round;}</style>
 </defs>
 <g id="figure_1">
  <g id="patch_1">
   <path d="M 0 222.954375 
L 359.584313 222.954375 
L 359.584313 0 
L 0 0 
z
" style="fill:none;"/>
  </g>
  <g id="axes_1">
   <g id="patch_2">
    <path d="M 20.878125 185.398125 
L 244.078125 185.398125 
L 244.078125 22.318125 
L 20.878125 22.318125 
z
" style="fill:#ffffff;"/>
   </g>
   <g id="PathCollection_1">
    <path clip-path="url(#p2b401ef96c)" d="M 217.330762 176.167182 
L 190.873249 176.167182 
" style="fill:#6788ee;stroke:#6788ee;stroke-width:2;"/>
    <path clip-path="url(#p2b401ef96c)" d="M 217.330762 174.628691 
L 190.873249 174.628691 
" style="fill:#6788ee;stroke:#6788ee;stroke-width:2;"/>
    <path clip-path="url(#p2b401ef96c)" d="M 217.330762 173.0902 
L 190.873249 173.0902 
" style="fill:#6788ee;stroke:#6788ee;stroke-width:2;"/>
    <path clip-path="url(#p2b401ef96c)" d="M 217.330762 171.55171 
L 190.873249 171.55171 
" style="fill:#6788ee;stroke:#6788ee;stroke-width:2;"/>
    <path clip-path="url(#p2b401ef96c)" d="M 217.330762 170.013219 
L 190.873249 170.013219 
" style="fill:#6788ee;stroke:#6788ee;stroke-width:2;"/>
    <path clip-path="url(#p2b401ef96c)" d="M 217.330762 168.474729 
L 190.873249 168.474729 
" style="fill:#6788ee;stroke:#6788ee;stroke-width:2;"/>
    <path clip-path="url(#p2b401ef96c)" d="M 217.330762 166.936238 
L 190.873249 166.936238 
" style="fill:#6788ee;stroke:#6788ee;stroke-width:2;"/>
    <path clip-path="url(#p2b401ef96c)" d="M 217.330762 165.397748 
L 190.873249 165.397748 
" style="fill:#6788ee;stroke:#6788ee;stroke-width:2;"/>
    <path clip-path="url(#p2b401ef96c)" d="M 217.330762 163.859257 
L 190.873249 163.859257 
" style="fill:#6788ee;stroke:#6788ee;stroke-width:2;"/>
    <path clip-path="url(#p2b401ef96c)" d="M 217.330762 162.320767 
L 190.873249 162.320767 
" style="fill:#6788ee;stroke:#6788ee;stroke-width:2;"/>
    <path clip-path="url(#p2b401ef96c)" d="M 217.330762 160.782276 
L 190.873249 160.782276 
" style="fill:#6788ee;stroke:#6788ee;stroke-width:2;"/>
    <path clip-path="url(#p2b401ef96c)" d="M 217.330762 159.243785 
L 190.873249 159.243785 
" style="fill:#6788ee;stroke:#6788ee;stroke-width:2;"/>
    <path clip-path="url(#p2b401ef96c)" d="M 217.330762 157.705295 
L 190.873249 157.705295 
" style="fill:#6788ee;stroke:#6788ee;stroke-width:2;"/>
    <path clip-path="url(#p2b401ef96c)" d="M 217.330762 156.166804 
L 190.873249 156.166804 
" style="fill:#6788ee;stroke:#6788ee;stroke-width:2;"/>
    <path clip-path="url(#p2b401ef96c)" d="M 217.330762 154.628314 
L 190.873249 154.628314 
" style="fill:#6788ee;stroke:#6788ee;stroke-width:2;"/>
    <path clip-path="url(#p2b401ef96c)" d="M 217.330762 153.089823 
L 190.873249 153.089823 
" style="fill:#6788ee;stroke:#6788ee;stroke-width:2;"/>
    <path clip-path="url(#p2b401ef96c)" d="M 217.330762 151.551333 
L 190.873249 151.551333 
" style="fill:#6788ee;stroke:#6788ee;stroke-width:2;"/>
    <path clip-path="url(#p2b401ef96c)" d="M 217.330762 150.012842 
L 190.873249 150.012842 
" style="fill:#6788ee;stroke:#6788ee;stroke-width:2;"/>
    <path clip-path="url(#p2b401ef96c)" d="M 217.330762 148.474351 
L 190.873249 148.474351 
" style="fill:#6788ee;stroke:#6788ee;stroke-width:2;"/>
    <path clip-path="url(#p2b401ef96c)" d="M 217.330762 146.935861 
L 190.873249 146.935861 
" style="fill:#6788ee;stroke:#6788ee;stroke-width:2;"/>
    <path clip-path="url(#p2b401ef96c)" d="M 217.330762 145.39737 
L 190.873249 145.39737 
" style="fill:#e26952;stroke:#e26952;stroke-width:2;"/>
    <path clip-path="url(#p2b401ef96c)" d="M 217.330762 143.85888 
L 190.873249 143.85888 
" style="fill:#e26952;stroke:#e26952;stroke-width:2;"/>
    <path clip-path="url(#p2b401ef96c)" d="M 217.330762 142.320389 
L 190.873249 142.320389 
" style="fill:#e26952;stroke:#e26952;stroke-width:2;"/>
    <path clip-path="url(#p2b401ef96c)" d="M 217.330762 140.781899 
L 190.873249 140.781899 
" style="fill:#e26952;stroke:#e26952;stroke-width:2;"/>
    <path clip-path="url(#p2b401ef96c)" d="M 217.330762 139.243408 
L 190.873249 139.243408 
" style="fill:#e26952;stroke:#e26952;stroke-width:2;"/>
    <path clip-path="url(#p2b401ef96c)" d="M 217.330762 137.704917 
L 190.873249 137.704917 
" style="fill:#e26952;stroke:#e26952;stroke-width:2;"/>
    <path clip-path="url(#p2b401ef96c)" d="M 217.330762 136.166427 
L 190.873249 136.166427 
" style="fill:#e26952;stroke:#e26952;stroke-width:2;"/>
    <path clip-path="url(#p2b401ef96c)" d="M 217.330762 134.627936 
L 190.873249 134.627936 
" style="fill:#e26952;stroke:#e26952;stroke-width:2;"/>
    <path clip-path="url(#p2b401ef96c)" d="M 217.330762 133.089446 
L 190.873249 133.089446 
" style="fill:#e26952;stroke:#e26952;stroke-width:2;"/>
    <path clip-path="url(#p2b401ef96c)" d="M 217.330762 131.550955 
L 190.873249 131.550955 
" style="fill:#e26952;stroke:#e26952;stroke-width:2;"/>
    <path clip-path="url(#p2b401ef96c)" d="M 217.330762 130.012465 
L 190.873249 130.012465 
" style="fill:#e26952;stroke:#e26952;stroke-width:2;"/>
    <path clip-path="url(#p2b401ef96c)" d="M 217.330762 128.473974 
L 190.873249 128.473974 
" style="fill:#e26952;stroke:#e26952;stroke-width:2;"/>
    <path clip-path="url(#p2b401ef96c)" d="M 217.330762 126.935483 
L 190.873249 126.935483 
" style="fill:#e26952;stroke:#e26952;stroke-width:2;"/>
    <path clip-path="url(#p2b401ef96c)" d="M 217.330762 125.396993 
L 190.873249 125.396993 
" style="fill:#e26952;stroke:#e26952;stroke-width:2;"/>
    <path clip-path="url(#p2b401ef96c)" d="M 217.330762 123.858502 
L 190.873249 123.858502 
" style="fill:#e26952;stroke:#e26952;stroke-width:2;"/>
    <path clip-path="url(#p2b401ef96c)" d="M 217.330762 122.320012 
L 190.873249 122.320012 
" style="fill:#e26952;stroke:#e26952;stroke-width:2;"/>
   </g>
   <g id="PathCollection_2">
    <path clip-path="url(#p2b401ef96c)" d="M 184.017329 151.551333 
L 157.559816 151.551333 
" style="fill:#6788ee;stroke:#6788ee;stroke-width:2;"/>
    <path clip-path="url(#p2b401ef96c)" d="M 184.017329 150.012842 
L 157.559816 150.012842 
" style="fill:#6788ee;stroke:#6788ee;stroke-width:2;"/>
    <path clip-path="url(#p2b401ef96c)" d="M 184.017329 148.474351 
L 157.559816 148.474351 
" style="fill:#6788ee;stroke:#6788ee;stroke-width:2;"/>
    <path clip-path="url(#p2b401ef96c)" d="M 184.017329 146.935861 
L 157.559816 146.935861 
" style="fill:#6788ee;stroke:#6788ee;stroke-width:2;"/>
    <path clip-path="url(#p2b401ef96c)" d="M 184.017329 145.39737 
L 157.559816 145.39737 
" style="fill:#6788ee;stroke:#6788ee;stroke-width:2;"/>
    <path clip-path="url(#p2b401ef96c)" d="M 184.017329 143.85888 
L 157.559816 143.85888 
" style="fill:#6788ee;stroke:#6788ee;stroke-width:2;"/>
    <path clip-path="url(#p2b401ef96c)" d="M 184.017329 142.320389 
L 157.559816 142.320389 
" style="fill:#6788ee;stroke:#6788ee;stroke-width:2;"/>
    <path clip-path="url(#p2b401ef96c)" d="M 184.017329 140.781899 
L 157.559816 140.781899 
" style="fill:#6788ee;stroke:#6788ee;stroke-width:2;"/>
    <path clip-path="url(#p2b401ef96c)" d="M 184.017329 139.243408 
L 157.559816 139.243408 
" style="fill:#6788ee;stroke:#6788ee;stroke-width:2;"/>
    <path clip-path="url(#p2b401ef96c)" d="M 184.017329 137.704917 
L 157.559816 137.704917 
" style="fill:#6788ee;stroke:#6788ee;stroke-width:2;"/>
    <path clip-path="url(#p2b401ef96c)" d="M 184.017329 136.166427 
L 157.559816 136.166427 
" style="fill:#6788ee;stroke:#6788ee;stroke-width:2;"/>
    <path clip-path="url(#p2b401ef96c)" d="M 184.017329 134.627936 
L 157.559816 134.627936 
" style="fill:#6788ee;stroke:#6788ee;stroke-width:2;"/>
    <path clip-path="url(#p2b401ef96c)" d="M 184.017329 133.089446 
L 157.559816 133.089446 
" style="fill:#6788ee;stroke:#6788ee;stroke-width:2;"/>
    <path clip-path="url(#p2b401ef96c)" d="M 184.017329 131.550955 
L 157.559816 131.550955 
" style="fill:#6788ee;stroke:#6788ee;stroke-width:2;"/>
    <path clip-path="url(#p2b401ef96c)" d="M 184.017329 130.012465 
L 157.559816 130.012465 
" style="fill:#6788ee;stroke:#6788ee;stroke-width:2;"/>
    <path clip-path="url(#p2b401ef96c)" d="M 184.017329 128.473974 
L 157.559816 128.473974 
" style="fill:#6788ee;stroke:#6788ee;stroke-width:2;"/>
    <path clip-path="url(#p2b401ef96c)" d="M 184.017329 126.935483 
L 157.559816 126.935483 
" style="fill:#6788ee;stroke:#6788ee;stroke-width:2;"/>
    <path clip-path="url(#p2b401ef96c)" d="M 184.017329 125.396993 
L 157.559816 125.396993 
" style="fill:#6788ee;stroke:#6788ee;stroke-width:2;"/>
    <path clip-path="url(#p2b401ef96c)" d="M 184.017329 123.858502 
L 157.559816 123.858502 
" style="fill:#6788ee;stroke:#6788ee;stroke-width:2;"/>
    <path clip-path="url(#p2b401ef96c)" d="M 184.017329 122.320012 
L 157.559816 122.320012 
" style="fill:#6788ee;stroke:#6788ee;stroke-width:2;"/>
    <path clip-path="url(#p2b401ef96c)" d="M 184.017329 120.781521 
L 157.559816 120.781521 
" style="fill:#e26952;stroke:#e26952;stroke-width:2;"/>
    <path clip-path="url(#p2b401ef96c)" d="M 184.017329 119.243031 
L 157.559816 119.243031 
" style="fill:#e26952;stroke:#e26952;stroke-width:2;"/>
    <path clip-path="url(#p2b401ef96c)" d="M 184.017329 117.70454 
L 157.559816 117.70454 
" style="fill:#e26952;stroke:#e26952;stroke-width:2;"/>
    <path clip-path="url(#p2b401ef96c)" d="M 184.017329 116.16605 
L 157.559816 116.16605 
" style="fill:#e26952;stroke:#e26952;stroke-width:2;"/>
    <path clip-path="url(#p2b401ef96c)" d="M 184.017329 114.627559 
L 157.559816 114.627559 
" style="fill:#e26952;stroke:#e26952;stroke-width:2;"/>
    <path clip-path="url(#p2b401ef96c)" d="M 184.017329 113.089068 
L 157.559816 113.089068 
" style="fill:#e26952;stroke:#e26952;stroke-width:2;"/>
    <path clip-path="url(#p2b401ef96c)" d="M 184.017329 111.550578 
L 157.559816 111.550578 
" style="fill:#e26952;stroke:#e26952;stroke-width:2;"/>
    <path clip-path="url(#p2b401ef96c)" d="M 184.017329 110.012087 
L 157.559816 110.012087 
" style="fill:#e26952;stroke:#e26952;stroke-width:2;"/>
    <path clip-path="url(#p2b401ef96c)" d="M 184.017329 108.473597 
L 157.559816 108.473597 
" style="fill:#e26952;stroke:#e26952;stroke-width:2;"/>
    <path clip-path="url(#p2b401ef96c)" d="M 184.017329 106.935106 
L 157.559816 106.935106 
" style="fill:#e26952;stroke:#e26952;stroke-width:2;"/>
    <path clip-path="url(#p2b401ef96c)" d="M 184.017329 105.396616 
L 157.559816 105.396616 
" style="fill:#e26952;stroke:#e26952;stroke-width:2;"/>
    <path clip-path="url(#p2b401ef96c)" d="M 184.017329 103.858125 
L 157.559816 103.858125 
" style="fill:#e26952;stroke:#e26952;stroke-width:2;"/>
    <path clip-path="url(#p2b401ef96c)" d="M 184.017329 102.319634 
L 157.559816 102.319634 
" style="fill:#e26952;stroke:#e26952;stroke-width:2;"/>
    <path clip-path="url(#p2b401ef96c)" d="M 184.017329 100.781144 
L 157.559816 100.781144 
" style="fill:#e26952;stroke:#e26952;stroke-width:2;"/>
    <path clip-path="url(#p2b401ef96c)" d="M 184.017329 99.242653 
L 157.559816 99.242653 
" style="fill:#e26952;stroke:#e26952;stroke-width:2;"/>
    <path clip-path="url(#p2b401ef96c)" d="M 184.017329 97.704163 
L 157.559816 97.704163 
" style="fill:#e26952;stroke:#e26952;stroke-width:2;"/>
   </g>
   <g id="PathCollection_3">
    <path clip-path="url(#p2b401ef96c)" d="M 150.703896 126.935483 
L 124.246383 126.935483 
" style="fill:#6788ee;stroke:#6788ee;stroke-width:2;"/>
    <path clip-path="url(#p2b401ef96c)" d="M 150.703896 125.396993 
L 124.246383 125.396993 
" style="fill:#6788ee;stroke:#6788ee;stroke-width:2;"/>
    <path clip-path="url(#p2b401ef96c)" d="M 150.703896 123.858502 
L 124.246383 123.858502 
" style="fill:#6788ee;stroke:#6788ee;stroke-width:2;"/>
    <path clip-path="url(#p2b401ef96c)" d="M 150.703896 122.320012 
L 124.246383 122.320012 
" style="fill:#6788ee;stroke:#6788ee;stroke-width:2;"/>
    <path clip-path="url(#p2b401ef96c)" d="M 150.703896 120.781521 
L 124.246383 120.781521 
" style="fill:#6788ee;stroke:#6788ee;stroke-width:2;"/>
    <path clip-path="url(#p2b401ef96c)" d="M 150.703896 119.243031 
L 124.246383 119.243031 
" style="fill:#6788ee;stroke:#6788ee;stroke-width:2;"/>
    <path clip-path="url(#p2b401ef96c)" d="M 150.703896 117.70454 
L 124.246383 117.70454 
" style="fill:#6788ee;stroke:#6788ee;stroke-width:2;"/>
    <path clip-path="url(#p2b401ef96c)" d="M 150.703896 116.16605 
L 124.246383 116.16605 
" style="fill:#6788ee;stroke:#6788ee;stroke-width:2;"/>
    <path clip-path="url(#p2b401ef96c)" d="M 150.703896 114.627559 
L 124.246383 114.627559 
" style="fill:#6788ee;stroke:#6788ee;stroke-width:2;"/>
    <path clip-path="url(#p2b401ef96c)" d="M 150.703896 113.089068 
L 124.246383 113.089068 
" style="fill:#6788ee;stroke:#6788ee;stroke-width:2;"/>
    <path clip-path="url(#p2b401ef96c)" d="M 150.703896 111.550578 
L 124.246383 111.550578 
" style="fill:#6788ee;stroke:#6788ee;stroke-width:2;"/>
    <path clip-path="url(#p2b401ef96c)" d="M 150.703896 110.012087 
L 124.246383 110.012087 
" style="fill:#6788ee;stroke:#6788ee;stroke-width:2;"/>
    <path clip-path="url(#p2b401ef96c)" d="M 150.703896 108.473597 
L 124.246383 108.473597 
" style="fill:#6788ee;stroke:#6788ee;stroke-width:2;"/>
    <path clip-path="url(#p2b401ef96c)" d="M 150.703896 106.935106 
L 124.246383 106.935106 
" style="fill:#6788ee;stroke:#6788ee;stroke-width:2;"/>
    <path clip-path="url(#p2b401ef96c)" d="M 150.703896 105.396616 
L 124.246383 105.396616 
" style="fill:#6788ee;stroke:#6788ee;stroke-width:2;"/>
    <path clip-path="url(#p2b401ef96c)" d="M 150.703896 103.858125 
L 124.246383 103.858125 
" style="fill:#6788ee;stroke:#6788ee;stroke-width:2;"/>
    <path clip-path="url(#p2b401ef96c)" d="M 150.703896 102.319634 
L 124.246383 102.319634 
" style="fill:#6788ee;stroke:#6788ee;stroke-width:2;"/>
    <path clip-path="url(#p2b401ef96c)" d="M 150.703896 100.781144 
L 124.246383 100.781144 
" style="fill:#6788ee;stroke:#6788ee;stroke-width:2;"/>
    <path clip-path="url(#p2b401ef96c)" d="M 150.703896 99.242653 
L 124.246383 99.242653 
" style="fill:#6788ee;stroke:#6788ee;stroke-width:2;"/>
    <path clip-path="url(#p2b401ef96c)" d="M 150.703896 97.704163 
L 124.246383 97.704163 
" style="fill:#6788ee;stroke:#6788ee;stroke-width:2;"/>
    <path clip-path="url(#p2b401ef96c)" d="M 150.703896 96.165672 
L 124.246383 96.165672 
" style="fill:#e26952;stroke:#e26952;stroke-width:2;"/>
    <path clip-path="url(#p2b401ef96c)" d="M 150.703896 94.627182 
L 124.246383 94.627182 
" style="fill:#e26952;stroke:#e26952;stroke-width:2;"/>
    <path clip-path="url(#p2b401ef96c)" d="M 150.703896 93.088691 
L 124.246383 93.088691 
" style="fill:#e26952;stroke:#e26952;stroke-width:2;"/>
    <path clip-path="url(#p2b401ef96c)" d="M 150.703896 91.5502 
L 124.246383 91.5502 
" style="fill:#e26952;stroke:#e26952;stroke-width:2;"/>
    <path clip-path="url(#p2b401ef96c)" d="M 150.703896 90.01171 
L 124.246383 90.01171 
" style="fill:#e26952;stroke:#e26952;stroke-width:2;"/>
    <path clip-path="url(#p2b401ef96c)" d="M 150.703896 88.473219 
L 124.246383 88.473219 
" style="fill:#e26952;stroke:#e26952;stroke-width:2;"/>
    <path clip-path="url(#p2b401ef96c)" d="M 150.703896 86.934729 
L 124.246383 86.934729 
" style="fill:#e26952;stroke:#e26952;stroke-width:2;"/>
    <path clip-path="url(#p2b401ef96c)" d="M 150.703896 85.396238 
L 124.246383 85.396238 
" style="fill:#e26952;stroke:#e26952;stroke-width:2;"/>
    <path clip-path="url(#p2b401ef96c)" d="M 150.703896 83.857748 
L 124.246383 83.857748 
" style="fill:#e26952;stroke:#e26952;stroke-width:2;"/>
    <path clip-path="url(#p2b401ef96c)" d="M 150.703896 82.319257 
L 124.246383 82.319257 
" style="fill:#e26952;stroke:#e26952;stroke-width:2;"/>
    <path clip-path="url(#p2b401ef96c)" d="M 150.703896 80.780767 
L 124.246383 80.780767 
" style="fill:#e26952;stroke:#e26952;stroke-width:2;"/>
    <path clip-path="url(#p2b401ef96c)" d="M 150.703896 79.242276 
L 124.246383 79.242276 
" style="fill:#e26952;stroke:#e26952;stroke-width:2;"/>
    <path clip-path="url(#p2b401ef96c)" d="M 150.703896 77.703785 
L 124.246383 77.703785 
" style="fill:#e26952;stroke:#e26952;stroke-width:2;"/>
    <path clip-path="url(#p2b401ef96c)" d="M 150.703896 76.165295 
L 124.246383 76.165295 
" style="fill:#e26952;stroke:#e26952;stroke-width:2;"/>
    <path clip-path="url(#p2b401ef96c)" d="M 150.703896 74.626804 
L 124.246383 74.626804 
" style="fill:#e26952;stroke:#e26952;stroke-width:2;"/>
    <path clip-path="url(#p2b401ef96c)" d="M 150.703896 73.088314 
L 124.246383 73.088314 
" style="fill:#e26952;stroke:#e26952;stroke-width:2;"/>
   </g>
   <g id="PathCollection_4">
    <path clip-path="url(#p2b401ef96c)" d="M 117.390464 102.319634 
L 90.932951 102.319634 
" style="fill:#6788ee;stroke:#6788ee;stroke-width:2;"/>
    <path clip-path="url(#p2b401ef96c)" d="M 117.390464 100.781144 
L 90.932951 100.781144 
" style="fill:#6788ee;stroke:#6788ee;stroke-width:2;"/>
    <path clip-path="url(#p2b401ef96c)" d="M 117.390464 99.242653 
L 90.932951 99.242653 
" style="fill:#6788ee;stroke:#6788ee;stroke-width:2;"/>
    <path clip-path="url(#p2b401ef96c)" d="M 117.390464 97.704163 
L 90.932951 97.704163 
" style="fill:#6788ee;stroke:#6788ee;stroke-width:2;"/>
    <path clip-path="url(#p2b401ef96c)" d="M 117.390464 96.165672 
L 90.932951 96.165672 
" style="fill:#6788ee;stroke:#6788ee;stroke-width:2;"/>
    <path clip-path="url(#p2b401ef96c)" d="M 117.390464 94.627182 
L 90.932951 94.627182 
" style="fill:#6788ee;stroke:#6788ee;stroke-width:2;"/>
    <path clip-path="url(#p2b401ef96c)" d="M 117.390464 93.088691 
L 90.932951 93.088691 
" style="fill:#6788ee;stroke:#6788ee;stroke-width:2;"/>
    <path clip-path="url(#p2b401ef96c)" d="M 117.390464 91.5502 
L 90.932951 91.5502 
" style="fill:#6788ee;stroke:#6788ee;stroke-width:2;"/>
    <path clip-path="url(#p2b401ef96c)" d="M 117.390464 90.01171 
L 90.932951 90.01171 
" style="fill:#6788ee;stroke:#6788ee;stroke-width:2;"/>
    <path clip-path="url(#p2b401ef96c)" d="M 117.390464 88.473219 
L 90.932951 88.473219 
" style="fill:#6788ee;stroke:#6788ee;stroke-width:2;"/>
    <path clip-path="url(#p2b401ef96c)" d="M 117.390464 86.934729 
L 90.932951 86.934729 
" style="fill:#6788ee;stroke:#6788ee;stroke-width:2;"/>
    <path clip-path="url(#p2b401ef96c)" d="M 117.390464 85.396238 
L 90.932951 85.396238 
" style="fill:#6788ee;stroke:#6788ee;stroke-width:2;"/>
    <path clip-path="url(#p2b401ef96c)" d="M 117.390464 83.857748 
L 90.932951 83.857748 
" style="fill:#6788ee;stroke:#6788ee;stroke-width:2;"/>
    <path clip-path="url(#p2b401ef96c)" d="M 117.390464 82.319257 
L 90.932951 82.319257 
" style="fill:#6788ee;stroke:#6788ee;stroke-width:2;"/>
    <path clip-path="url(#p2b401ef96c)" d="M 117.390464 80.780767 
L 90.932951 80.780767 
" style="fill:#6788ee;stroke:#6788ee;stroke-width:2;"/>
    <path clip-path="url(#p2b401ef96c)" d="M 117.390464 79.242276 
L 90.932951 79.242276 
" style="fill:#6788ee;stroke:#6788ee;stroke-width:2;"/>
    <path clip-path="url(#p2b401ef96c)" d="M 117.390464 77.703785 
L 90.932951 77.703785 
" style="fill:#6788ee;stroke:#6788ee;stroke-width:2;"/>
    <path clip-path="url(#p2b401ef96c)" d="M 117.390464 76.165295 
L 90.932951 76.165295 
" style="fill:#6788ee;stroke:#6788ee;stroke-width:2;"/>
    <path clip-path="url(#p2b401ef96c)" d="M 117.390464 74.626804 
L 90.932951 74.626804 
" style="fill:#6788ee;stroke:#6788ee;stroke-width:2;"/>
    <path clip-path="url(#p2b401ef96c)" d="M 117.390464 73.088314 
L 90.932951 73.088314 
" style="fill:#6788ee;stroke:#6788ee;stroke-width:2;"/>
    <path clip-path="url(#p2b401ef96c)" d="M 117.390464 71.549823 
L 90.932951 71.549823 
" style="fill:#e26952;stroke:#e26952;stroke-width:2;"/>
    <path clip-path="url(#p2b401ef96c)" d="M 117.390464 70.011333 
L 90.932951 70.011333 
" style="fill:#e26952;stroke:#e26952;stroke-width:2;"/>
    <path clip-path="url(#p2b401ef96c)" d="M 117.390464 68.472842 
L 90.932951 68.472842 
" style="fill:#e26952;stroke:#e26952;stroke-width:2;"/>
    <path clip-path="url(#p2b401ef96c)" d="M 117.390464 66.934351 
L 90.932951 66.934351 
" style="fill:#e26952;stroke:#e26952;stroke-width:2;"/>
    <path clip-path="url(#p2b401ef96c)" d="M 117.390464 65.395861 
L 90.932951 65.395861 
" style="fill:#e26952;stroke:#e26952;stroke-width:2;"/>
    <path clip-path="url(#p2b401ef96c)" d="M 117.390464 63.85737 
L 90.932951 63.85737 
" style="fill:#e26952;stroke:#e26952;stroke-width:2;"/>
    <path clip-path="url(#p2b401ef96c)" d="M 117.390464 62.31888 
L 90.932951 62.31888 
" style="fill:#e26952;stroke:#e26952;stroke-width:2;"/>
    <path clip-path="url(#p2b401ef96c)" d="M 117.390464 60.780389 
L 90.932951 60.780389 
" style="fill:#e26952;stroke:#e26952;stroke-width:2;"/>
    <path clip-path="url(#p2b401ef96c)" d="M 117.390464 59.241899 
L 90.932951 59.241899 
" style="fill:#e26952;stroke:#e26952;stroke-width:2;"/>
    <path clip-path="url(#p2b401ef96c)" d="M 117.390464 57.703408 
L 90.932951 57.703408 
" style="fill:#e26952;stroke:#e26952;stroke-width:2;"/>
    <path clip-path="url(#p2b401ef96c)" d="M 117.390464 56.164917 
L 90.932951 56.164917 
" style="fill:#e26952;stroke:#e26952;stroke-width:2;"/>
    <path clip-path="url(#p2b401ef96c)" d="M 117.390464 54.626427 
L 90.932951 54.626427 
" style="fill:#e26952;stroke:#e26952;stroke-width:2;"/>
    <path clip-path="url(#p2b401ef96c)" d="M 117.390464 53.087936 
L 90.932951 53.087936 
" style="fill:#e26952;stroke:#e26952;stroke-width:2;"/>
    <path clip-path="url(#p2b401ef96c)" d="M 117.390464 51.549446 
L 90.932951 51.549446 
" style="fill:#e26952;stroke:#e26952;stroke-width:2;"/>
    <path clip-path="url(#p2b401ef96c)" d="M 117.390464 50.010955 
L 90.932951 50.010955 
" style="fill:#e26952;stroke:#e26952;stroke-width:2;"/>
    <path clip-path="url(#p2b401ef96c)" d="M 117.390464 48.472465 
L 90.932951 48.472465 
" style="fill:#e26952;stroke:#e26952;stroke-width:2;"/>
   </g>
   <g id="PathCollection_5">
    <path clip-path="url(#p2b401ef96c)" d="M 84.077031 77.703785 
L 57.619518 77.703785 
" style="fill:#6788ee;stroke:#6788ee;stroke-width:2;"/>
    <path clip-path="url(#p2b401ef96c)" d="M 84.077031 76.165295 
L 57.619518 76.165295 
" style="fill:#6788ee;stroke:#6788ee;stroke-width:2;"/>
    <path clip-path="url(#p2b401ef96c)" d="M 84.077031 74.626804 
L 57.619518 74.626804 
" style="fill:#6788ee;stroke:#6788ee;stroke-width:2;"/>
    <path clip-path="url(#p2b401ef96c)" d="M 84.077031 73.088314 
L 57.619518 73.088314 
" style="fill:#6788ee;stroke:#6788ee;stroke-width:2;"/>
    <path clip-path="url(#p2b401ef96c)" d="M 84.077031 71.549823 
L 57.619518 71.549823 
" style="fill:#6788ee;stroke:#6788ee;stroke-width:2;"/>
    <path clip-path="url(#p2b401ef96c)" d="M 84.077031 70.011333 
L 57.619518 70.011333 
" style="fill:#6788ee;stroke:#6788ee;stroke-width:2;"/>
    <path clip-path="url(#p2b401ef96c)" d="M 84.077031 68.472842 
L 57.619518 68.472842 
" style="fill:#6788ee;stroke:#6788ee;stroke-width:2;"/>
    <path clip-path="url(#p2b401ef96c)" d="M 84.077031 66.934351 
L 57.619518 66.934351 
" style="fill:#6788ee;stroke:#6788ee;stroke-width:2;"/>
    <path clip-path="url(#p2b401ef96c)" d="M 84.077031 65.395861 
L 57.619518 65.395861 
" style="fill:#6788ee;stroke:#6788ee;stroke-width:2;"/>
    <path clip-path="url(#p2b401ef96c)" d="M 84.077031 63.85737 
L 57.619518 63.85737 
" style="fill:#6788ee;stroke:#6788ee;stroke-width:2;"/>
    <path clip-path="url(#p2b401ef96c)" d="M 84.077031 62.31888 
L 57.619518 62.31888 
" style="fill:#6788ee;stroke:#6788ee;stroke-width:2;"/>
    <path clip-path="url(#p2b401ef96c)" d="M 84.077031 60.780389 
L 57.619518 60.780389 
" style="fill:#6788ee;stroke:#6788ee;stroke-width:2;"/>
    <path clip-path="url(#p2b401ef96c)" d="M 84.077031 59.241899 
L 57.619518 59.241899 
" style="fill:#6788ee;stroke:#6788ee;stroke-width:2;"/>
    <path clip-path="url(#p2b401ef96c)" d="M 84.077031 57.703408 
L 57.619518 57.703408 
" style="fill:#6788ee;stroke:#6788ee;stroke-width:2;"/>
    <path clip-path="url(#p2b401ef96c)" d="M 84.077031 56.164917 
L 57.619518 56.164917 
" style="fill:#6788ee;stroke:#6788ee;stroke-width:2;"/>
    <path clip-path="url(#p2b401ef96c)" d="M 84.077031 54.626427 
L 57.619518 54.626427 
" style="fill:#6788ee;stroke:#6788ee;stroke-width:2;"/>
    <path clip-path="url(#p2b401ef96c)" d="M 84.077031 53.087936 
L 57.619518 53.087936 
" style="fill:#6788ee;stroke:#6788ee;stroke-width:2;"/>
    <path clip-path="url(#p2b401ef96c)" d="M 84.077031 51.549446 
L 57.619518 51.549446 
" style="fill:#6788ee;stroke:#6788ee;stroke-width:2;"/>
    <path clip-path="url(#p2b401ef96c)" d="M 84.077031 50.010955 
L 57.619518 50.010955 
" style="fill:#6788ee;stroke:#6788ee;stroke-width:2;"/>
    <path clip-path="url(#p2b401ef96c)" d="M 84.077031 48.472465 
L 57.619518 48.472465 
" style="fill:#6788ee;stroke:#6788ee;stroke-width:2;"/>
    <path clip-path="url(#p2b401ef96c)" d="M 84.077031 46.933974 
L 57.619518 46.933974 
" style="fill:#e26952;stroke:#e26952;stroke-width:2;"/>
    <path clip-path="url(#p2b401ef96c)" d="M 84.077031 45.395483 
L 57.619518 45.395483 
" style="fill:#e26952;stroke:#e26952;stroke-width:2;"/>
    <path clip-path="url(#p2b401ef96c)" d="M 84.077031 43.856993 
L 57.619518 43.856993 
" style="fill:#e26952;stroke:#e26952;stroke-width:2;"/>
    <path clip-path="url(#p2b401ef96c)" d="M 84.077031 42.318502 
L 57.619518 42.318502 
" style="fill:#e26952;stroke:#e26952;stroke-width:2;"/>
    <path clip-path="url(#p2b401ef96c)" d="M 84.077031 40.780012 
L 57.619518 40.780012 
" style="fill:#e26952;stroke:#e26952;stroke-width:2;"/>
    <path clip-path="url(#p2b401ef96c)" d="M 84.077031 39.241521 
L 57.619518 39.241521 
" style="fill:#e26952;stroke:#e26952;stroke-width:2;"/>
    <path clip-path="url(#p2b401ef96c)" d="M 84.077031 37.703031 
L 57.619518 37.703031 
" style="fill:#e26952;stroke:#e26952;stroke-width:2;"/>
    <path clip-path="url(#p2b401ef96c)" d="M 84.077031 36.16454 
L 57.619518 36.16454 
" style="fill:#e26952;stroke:#e26952;stroke-width:2;"/>
    <path clip-path="url(#p2b401ef96c)" d="M 84.077031 34.62605 
L 57.619518 34.62605 
" style="fill:#e26952;stroke:#e26952;stroke-width:2;"/>
    <path clip-path="url(#p2b401ef96c)" d="M 84.077031 33.087559 
L 57.619518 33.087559 
" style="fill:#e26952;stroke:#e26952;stroke-width:2;"/>
    <path clip-path="url(#p2b401ef96c)" d="M 84.077031 31.549068 
L 57.619518 31.549068 
" style="fill:#e26952;stroke:#e26952;stroke-width:2;"/>
    <path clip-path="url(#p2b401ef96c)" d="M 84.077031 30.010578 
L 57.619518 30.010578 
" style="fill:#e26952;stroke:#e26952;stroke-width:2;"/>
    <path clip-path="url(#p2b401ef96c)" d="M 84.077031 28.472087 
L 57.619518 28.472087 
" style="fill:#e26952;stroke:#e26952;stroke-width:2;"/>
    <path clip-path="url(#p2b401ef96c)" d="M 84.077031 26.933597 
L 57.619518 26.933597 
" style="fill:#e26952;stroke:#e26952;stroke-width:2;"/>
    <path clip-path="url(#p2b401ef96c)" d="M 84.077031 25.395106 
L 57.619518 25.395106 
" style="fill:#e26952;stroke:#e26952;stroke-width:2;"/>
    <path clip-path="url(#p2b401ef96c)" d="M 84.077031 23.856616 
L 57.619518 23.856616 
" style="fill:#e26952;stroke:#e26952;stroke-width:2;"/>
   </g>
   <g id="PathCollection_6">
    <path clip-path="url(#p2b401ef96c)" d="M 50.763598 176.167182 
L 24.306085 176.167182 
" style="fill:#b15928;stroke:#b15928;stroke-width:2;"/>
    <path clip-path="url(#p2b401ef96c)" d="M 50.763598 174.628691 
L 24.306085 174.628691 
" style="fill:#fdbf6f;stroke:#fdbf6f;stroke-width:2;"/>
    <path clip-path="url(#p2b401ef96c)" d="M 50.763598 173.0902 
L 24.306085 173.0902 
" style="fill:#b15928;stroke:#b15928;stroke-width:2;"/>
    <path clip-path="url(#p2b401ef96c)" d="M 50.763598 171.55171 
L 24.306085 171.55171 
" style="fill:#b15928;stroke:#b15928;stroke-width:2;"/>
    <path clip-path="url(#p2b401ef96c)" d="M 50.763598 170.013219 
L 24.306085 170.013219 
" style="fill:#b15928;stroke:#b15928;stroke-width:2;"/>
    <path clip-path="url(#p2b401ef96c)" d="M 50.763598 168.474729 
L 24.306085 168.474729 
" style="fill:#b15928;stroke:#b15928;stroke-width:2;"/>
    <path clip-path="url(#p2b401ef96c)" d="M 50.763598 166.936238 
L 24.306085 166.936238 
" style="fill:#b15928;stroke:#b15928;stroke-width:2;"/>
    <path clip-path="url(#p2b401ef96c)" d="M 50.763598 165.397748 
L 24.306085 165.397748 
" style="fill:#b15928;stroke:#b15928;stroke-width:2;"/>
    <path clip-path="url(#p2b401ef96c)" d="M 50.763598 163.859257 
L 24.306085 163.859257 
" style="fill:#fdbf6f;stroke:#fdbf6f;stroke-width:2;"/>
    <path clip-path="url(#p2b401ef96c)" d="M 50.763598 162.320767 
L 24.306085 162.320767 
" style="fill:#fdbf6f;stroke:#fdbf6f;stroke-width:2;"/>
    <path clip-path="url(#p2b401ef96c)" d="M 50.763598 160.782276 
L 24.306085 160.782276 
" style="fill:#b15928;stroke:#b15928;stroke-width:2;"/>
    <path clip-path="url(#p2b401ef96c)" d="M 50.763598 159.243785 
L 24.306085 159.243785 
" style="fill:#fdbf6f;stroke:#fdbf6f;stroke-width:2;"/>
    <path clip-path="url(#p2b401ef96c)" d="M 50.763598 157.705295 
L 24.306085 157.705295 
" style="fill:#b15928;stroke:#b15928;stroke-width:2;"/>
    <path clip-path="url(#p2b401ef96c)" d="M 50.763598 156.166804 
L 24.306085 156.166804 
" style="fill:#fdbf6f;stroke:#fdbf6f;stroke-width:2;"/>
    <path clip-path="url(#p2b401ef96c)" d="M 50.763598 154.628314 
L 24.306085 154.628314 
" style="fill:#b15928;stroke:#b15928;stroke-width:2;"/>
    <path clip-path="url(#p2b401ef96c)" d="M 50.763598 153.089823 
L 24.306085 153.089823 
" style="fill:#fdbf6f;stroke:#fdbf6f;stroke-width:2;"/>
    <path clip-path="url(#p2b401ef96c)" d="M 50.763598 151.551333 
L 24.306085 151.551333 
" style="fill:#b15928;stroke:#b15928;stroke-width:2;"/>
    <path clip-path="url(#p2b401ef96c)" d="M 50.763598 150.012842 
L 24.306085 150.012842 
" style="fill:#b15928;stroke:#b15928;stroke-width:2;"/>
    <path clip-path="url(#p2b401ef96c)" d="M 50.763598 148.474351 
L 24.306085 148.474351 
" style="fill:#fdbf6f;stroke:#fdbf6f;stroke-width:2;"/>
    <path clip-path="url(#p2b401ef96c)" d="M 50.763598 146.935861 
L 24.306085 146.935861 
" style="fill:#b15928;stroke:#b15928;stroke-width:2;"/>
    <path clip-path="url(#p2b401ef96c)" d="M 50.763598 145.39737 
L 24.306085 145.39737 
" style="fill:#b15928;stroke:#b15928;stroke-width:2;"/>
    <path clip-path="url(#p2b401ef96c)" d="M 50.763598 143.85888 
L 24.306085 143.85888 
" style="fill:#b15928;stroke:#b15928;stroke-width:2;"/>
    <path clip-path="url(#p2b401ef96c)" d="M 50.763598 142.320389 
L 24.306085 142.320389 
" style="fill:#fdbf6f;stroke:#fdbf6f;stroke-width:2;"/>
    <path clip-path="url(#p2b401ef96c)" d="M 50.763598 140.781899 
L 24.306085 140.781899 
" style="fill:#b15928;stroke:#b15928;stroke-width:2;"/>
    <path clip-path="url(#p2b401ef96c)" d="M 50.763598 139.243408 
L 24.306085 139.243408 
" style="fill:#fdbf6f;stroke:#fdbf6f;stroke-width:2;"/>
    <path clip-path="url(#p2b401ef96c)" d="M 50.763598 137.704917 
L 24.306085 137.704917 
" style="fill:#b15928;stroke:#b15928;stroke-width:2;"/>
    <path clip-path="url(#p2b401ef96c)" d="M 50.763598 136.166427 
L 24.306085 136.166427 
" style="fill:#fdbf6f;stroke:#fdbf6f;stroke-width:2;"/>
    <path clip-path="url(#p2b401ef96c)" d="M 50.763598 134.627936 
L 24.306085 134.627936 
" style="fill:#b15928;stroke:#b15928;stroke-width:2;"/>
    <path clip-path="url(#p2b401ef96c)" d="M 50.763598 133.089446 
L 24.306085 133.089446 
" style="fill:#b15928;stroke:#b15928;stroke-width:2;"/>
    <path clip-path="url(#p2b401ef96c)" d="M 50.763598 131.550955 
L 24.306085 131.550955 
" style="fill:#b15928;stroke:#b15928;stroke-width:2;"/>
    <path clip-path="url(#p2b401ef96c)" d="M 50.763598 130.012465 
L 24.306085 130.012465 
" style="fill:#a6cee3;stroke:#a6cee3;stroke-width:2;"/>
    <path clip-path="url(#p2b401ef96c)" d="M 50.763598 128.473974 
L 24.306085 128.473974 
" style="fill:#b15928;stroke:#b15928;stroke-width:2;"/>
    <path clip-path="url(#p2b401ef96c)" d="M 50.763598 126.935483 
L 24.306085 126.935483 
" style="fill:#a6cee3;stroke:#a6cee3;stroke-width:2;"/>
    <path clip-path="url(#p2b401ef96c)" d="M 50.763598 125.396993 
L 24.306085 125.396993 
" style="fill:#b15928;stroke:#b15928;stroke-width:2;"/>
    <path clip-path="url(#p2b401ef96c)" d="M 50.763598 123.858502 
L 24.306085 123.858502 
" style="fill:#b15928;stroke:#b15928;stroke-width:2;"/>
    <path clip-path="url(#p2b401ef96c)" d="M 50.763598 122.320012 
L 24.306085 122.320012 
" style="fill:#fdbf6f;stroke:#fdbf6f;stroke-width:2;"/>
    <path clip-path="url(#p2b401ef96c)" d="M 50.763598 120.781521 
L 24.306085 120.781521 
" style="fill:#b15928;stroke:#b15928;stroke-width:2;"/>
    <path clip-path="url(#p2b401ef96c)" d="M 50.763598 119.243031 
L 24.306085 119.243031 
" style="fill:#fdbf6f;stroke:#fdbf6f;stroke-width:2;"/>
    <path clip-path="url(#p2b401ef96c)" d="M 50.763598 117.70454 
L 24.306085 117.70454 
" style="fill:#fdbf6f;stroke:#fdbf6f;stroke-width:2;"/>
    <path clip-path="url(#p2b401ef96c)" d="M 50.763598 116.16605 
L 24.306085 116.16605 
" style="fill:#b15928;stroke:#b15928;stroke-width:2;"/>
    <path clip-path="url(#p2b401ef96c)" d="M 50.763598 114.627559 
L 24.306085 114.627559 
" style="fill:#b15928;stroke:#b15928;stroke-width:2;"/>
    <path clip-path="url(#p2b401ef96c)" d="M 50.763598 113.089068 
L 24.306085 113.089068 
" style="fill:#fdbf6f;stroke:#fdbf6f;stroke-width:2;"/>
    <path clip-path="url(#p2b401ef96c)" d="M 50.763598 111.550578 
L 24.306085 111.550578 
" style="fill:#b15928;stroke:#b15928;stroke-width:2;"/>
    <path clip-path="url(#p2b401ef96c)" d="M 50.763598 110.012087 
L 24.306085 110.012087 
" style="fill:#b15928;stroke:#b15928;stroke-width:2;"/>
    <path clip-path="url(#p2b401ef96c)" d="M 50.763598 108.473597 
L 24.306085 108.473597 
" style="fill:#a6cee3;stroke:#a6cee3;stroke-width:2;"/>
    <path clip-path="url(#p2b401ef96c)" d="M 50.763598 106.935106 
L 24.306085 106.935106 
" style="fill:#a6cee3;stroke:#a6cee3;stroke-width:2;"/>
    <path clip-path="url(#p2b401ef96c)" d="M 50.763598 105.396616 
L 24.306085 105.396616 
" style="fill:#b15928;stroke:#b15928;stroke-width:2;"/>
    <path clip-path="url(#p2b401ef96c)" d="M 50.763598 103.858125 
L 24.306085 103.858125 
" style="fill:#fdbf6f;stroke:#fdbf6f;stroke-width:2;"/>
    <path clip-path="url(#p2b401ef96c)" d="M 50.763598 102.319634 
L 24.306085 102.319634 
" style="fill:#b15928;stroke:#b15928;stroke-width:2;"/>
    <path clip-path="url(#p2b401ef96c)" d="M 50.763598 100.781144 
L 24.306085 100.781144 
" style="fill:#b15928;stroke:#b15928;stroke-width:2;"/>
    <path clip-path="url(#p2b401ef96c)" d="M 50.763598 99.242653 
L 24.306085 99.242653 
" style="fill:#fdbf6f;stroke:#fdbf6f;stroke-width:2;"/>
    <path clip-path="url(#p2b401ef96c)" d="M 50.763598 97.704163 
L 24.306085 97.704163 
" style="fill:#b15928;stroke:#b15928;stroke-width:2;"/>
    <path clip-path="url(#p2b401ef96c)" d="M 50.763598 96.165672 
L 24.306085 96.165672 
" style="fill:#b15928;stroke:#b15928;stroke-width:2;"/>
    <path clip-path="url(#p2b401ef96c)" d="M 50.763598 94.627182 
L 24.306085 94.627182 
" style="fill:#b15928;stroke:#b15928;stroke-width:2;"/>
    <path clip-path="url(#p2b401ef96c)" d="M 50.763598 93.088691 
L 24.306085 93.088691 
" style="fill:#b15928;stroke:#b15928;stroke-width:2;"/>
    <path clip-path="url(#p2b401ef96c)" d="M 50.763598 91.5502 
L 24.306085 91.5502 
" style="fill:#b15928;stroke:#b15928;stroke-width:2;"/>
    <path clip-path="url(#p2b401ef96c)" d="M 50.763598 90.01171 
L 24.306085 90.01171 
" style="fill:#b15928;stroke:#b15928;stroke-width:2;"/>
    <path clip-path="url(#p2b401ef96c)" d="M 50.763598 88.473219 
L 24.306085 88.473219 
" style="fill:#fdbf6f;stroke:#fdbf6f;stroke-width:2;"/>
    <path clip-path="url(#p2b401ef96c)" d="M 50.763598 86.934729 
L 24.306085 86.934729 
" style="fill:#b15928;stroke:#b15928;stroke-width:2;"/>
    <path clip-path="url(#p2b401ef96c)" d="M 50.763598 85.396238 
L 24.306085 85.396238 
" style="fill:#b15928;stroke:#b15928;stroke-width:2;"/>
    <path clip-path="url(#p2b401ef96c)" d="M 50.763598 83.857748 
L 24.306085 83.857748 
" style="fill:#fdbf6f;stroke:#fdbf6f;stroke-width:2;"/>
    <path clip-path="url(#p2b401ef96c)" d="M 50.763598 82.319257 
L 24.306085 82.319257 
" style="fill:#fdbf6f;stroke:#fdbf6f;stroke-width:2;"/>
    <path clip-path="url(#p2b401ef96c)" d="M 50.763598 80.780767 
L 24.306085 80.780767 
" style="fill:#b15928;stroke:#b15928;stroke-width:2;"/>
    <path clip-path="url(#p2b401ef96c)" d="M 50.763598 79.242276 
L 24.306085 79.242276 
" style="fill:#fdbf6f;stroke:#fdbf6f;stroke-width:2;"/>
    <path clip-path="url(#p2b401ef96c)" d="M 50.763598 77.703785 
L 24.306085 77.703785 
" style="fill:#fdbf6f;stroke:#fdbf6f;stroke-width:2;"/>
    <path clip-path="url(#p2b401ef96c)" d="M 50.763598 76.165295 
L 24.306085 76.165295 
" style="fill:#b15928;stroke:#b15928;stroke-width:2;"/>
    <path clip-path="url(#p2b401ef96c)" d="M 50.763598 74.626804 
L 24.306085 74.626804 
" style="fill:#a6cee3;stroke:#a6cee3;stroke-width:2;"/>
    <path clip-path="url(#p2b401ef96c)" d="M 50.763598 73.088314 
L 24.306085 73.088314 
" style="fill:#b15928;stroke:#b15928;stroke-width:2;"/>
    <path clip-path="url(#p2b401ef96c)" d="M 50.763598 71.549823 
L 24.306085 71.549823 
" style="fill:#b15928;stroke:#b15928;stroke-width:2;"/>
    <path clip-path="url(#p2b401ef96c)" d="M 50.763598 70.011333 
L 24.306085 70.011333 
" style="fill:#b15928;stroke:#b15928;stroke-width:2;"/>
    <path clip-path="url(#p2b401ef96c)" d="M 50.763598 68.472842 
L 24.306085 68.472842 
" style="fill:#b15928;stroke:#b15928;stroke-width:2;"/>
    <path clip-path="url(#p2b401ef96c)" d="M 50.763598 66.934351 
L 24.306085 66.934351 
" style="fill:#b15928;stroke:#b15928;stroke-width:2;"/>
    <path clip-path="url(#p2b401ef96c)" d="M 50.763598 65.395861 
L 24.306085 65.395861 
" style="fill:#b15928;stroke:#b15928;stroke-width:2;"/>
    <path clip-path="url(#p2b401ef96c)" d="M 50.763598 63.85737 
L 24.306085 63.85737 
" style="fill:#fdbf6f;stroke:#fdbf6f;stroke-width:2;"/>
    <path clip-path="url(#p2b401ef96c)" d="M 50.763598 62.31888 
L 24.306085 62.31888 
" style="fill:#a6cee3;stroke:#a6cee3;stroke-width:2;"/>
    <path clip-path="url(#p2b401ef96c)" d="M 50.763598 60.780389 
L 24.306085 60.780389 
" style="fill:#b15928;stroke:#b15928;stroke-width:2;"/>
    <path clip-path="url(#p2b401ef96c)" d="M 50.763598 59.241899 
L 24.306085 59.241899 
" style="fill:#b15928;stroke:#b15928;stroke-width:2;"/>
    <path clip-path="url(#p2b401ef96c)" d="M 50.763598 57.703408 
L 24.306085 57.703408 
" style="fill:#fdbf6f;stroke:#fdbf6f;stroke-width:2;"/>
    <path clip-path="url(#p2b401ef96c)" d="M 50.763598 56.164917 
L 24.306085 56.164917 
" style="fill:#b15928;stroke:#b15928;stroke-width:2;"/>
    <path clip-path="url(#p2b401ef96c)" d="M 50.763598 54.626427 
L 24.306085 54.626427 
" style="fill:#a6cee3;stroke:#a6cee3;stroke-width:2;"/>
    <path clip-path="url(#p2b401ef96c)" d="M 50.763598 53.087936 
L 24.306085 53.087936 
" style="fill:#a6cee3;stroke:#a6cee3;stroke-width:2;"/>
    <path clip-path="url(#p2b401ef96c)" d="M 50.763598 51.549446 
L 24.306085 51.549446 
" style="fill:#fdbf6f;stroke:#fdbf6f;stroke-width:2;"/>
    <path clip-path="url(#p2b401ef96c)" d="M 50.763598 50.010955 
L 24.306085 50.010955 
" style="fill:#fdbf6f;stroke:#fdbf6f;stroke-width:2;"/>
    <path clip-path="url(#p2b401ef96c)" d="M 50.763598 48.472465 
L 24.306085 48.472465 
" style="fill:#fdbf6f;stroke:#fdbf6f;stroke-width:2;"/>
    <path clip-path="url(#p2b401ef96c)" d="M 50.763598 46.933974 
L 24.306085 46.933974 
" style="fill:#b15928;stroke:#b15928;stroke-width:2;"/>
    <path clip-path="url(#p2b401ef96c)" d="M 50.763598 45.395483 
L 24.306085 45.395483 
" style="fill:#fdbf6f;stroke:#fdbf6f;stroke-width:2;"/>
    <path clip-path="url(#p2b401ef96c)" d="M 50.763598 43.856993 
L 24.306085 43.856993 
" style="fill:#b15928;stroke:#b15928;stroke-width:2;"/>
    <path clip-path="url(#p2b401ef96c)" d="M 50.763598 42.318502 
L 24.306085 42.318502 
" style="fill:#b15928;stroke:#b15928;stroke-width:2;"/>
    <path clip-path="url(#p2b401ef96c)" d="M 50.763598 40.780012 
L 24.306085 40.780012 
" style="fill:#a6cee3;stroke:#a6cee3;stroke-width:2;"/>
    <path clip-path="url(#p2b401ef96c)" d="M 50.763598 39.241521 
L 24.306085 39.241521 
" style="fill:#b15928;stroke:#b15928;stroke-width:2;"/>
    <path clip-path="url(#p2b401ef96c)" d="M 50.763598 37.703031 
L 24.306085 37.703031 
" style="fill:#a6cee3;stroke:#a6cee3;stroke-width:2;"/>
    <path clip-path="url(#p2b401ef96c)" d="M 50.763598 36.16454 
L 24.306085 36.16454 
" style="fill:#fdbf6f;stroke:#fdbf6f;stroke-width:2;"/>
    <path clip-path="url(#p2b401ef96c)" d="M 50.763598 34.62605 
L 24.306085 34.62605 
" style="fill:#b15928;stroke:#b15928;stroke-width:2;"/>
    <path clip-path="url(#p2b401ef96c)" d="M 50.763598 33.087559 
L 24.306085 33.087559 
" style="fill:#b15928;stroke:#b15928;stroke-width:2;"/>
    <path clip-path="url(#p2b401ef96c)" d="M 50.763598 31.549068 
L 24.306085 31.549068 
" style="fill:#b15928;stroke:#b15928;stroke-width:2;"/>
    <path clip-path="url(#p2b401ef96c)" d="M 50.763598 30.010578 
L 24.306085 30.010578 
" style="fill:#fdbf6f;stroke:#fdbf6f;stroke-width:2;"/>
    <path clip-path="url(#p2b401ef96c)" d="M 50.763598 28.472087 
L 24.306085 28.472087 
" style="fill:#b15928;stroke:#b15928;stroke-width:2;"/>
    <path clip-path="url(#p2b401ef96c)" d="M 50.763598 26.933597 
L 24.306085 26.933597 
" style="fill:#fdbf6f;stroke:#fdbf6f;stroke-width:2;"/>
    <path clip-path="url(#p2b401ef96c)" d="M 50.763598 25.395106 
L 24.306085 25.395106 
" style="fill:#b15928;stroke:#b15928;stroke-width:2;"/>
    <path clip-path="url(#p2b401ef96c)" d="M 50.763598 23.856616 
L 24.306085 23.856616 
" style="fill:#b15928;stroke:#b15928;stroke-width:2;"/>
   </g>
   <g id="matplotlib.axis_1">
    <g id="xtick_1">
     <g id="line2d_1">
      <defs>
       <path d="M 0 0 
L 0 3.5 
" id="mc2067ab513" style="stroke:#000000;stroke-width:0.8;"/>
      </defs>
      <g>
       <use style="stroke:#000000;stroke-width:0.8;" x="37.534841" xlink:href="#mc2067ab513" y="185.398125"/>
      </g>
     </g>
     <g id="text_1">
      <!-- class -->
      <g transform="translate(25.123123 199.996562)scale(0.1 -0.1)">
       <defs>
        <path d="M 3122 3366 
L 3122 2828 
Q 2878 2963 2633 3030 
Q 2388 3097 2138 3097 
Q 1578 3097 1268 2742 
Q 959 2388 959 1747 
Q 959 1106 1268 751 
Q 1578 397 2138 397 
Q 2388 397 2633 464 
Q 2878 531 3122 666 
L 3122 134 
Q 2881 22 2623 -34 
Q 2366 -91 2075 -91 
Q 1284 -91 818 406 
Q 353 903 353 1747 
Q 353 2603 823 3093 
Q 1294 3584 2113 3584 
Q 2378 3584 2631 3529 
Q 2884 3475 3122 3366 
z
" id="DejaVuSans-63" transform="scale(0.015625)"/>
        <path d="M 603 4863 
L 1178 4863 
L 1178 0 
L 603 0 
L 603 4863 
z
" id="DejaVuSans-6c" transform="scale(0.015625)"/>
        <path d="M 2194 1759 
Q 1497 1759 1228 1600 
Q 959 1441 959 1056 
Q 959 750 1161 570 
Q 1363 391 1709 391 
Q 2188 391 2477 730 
Q 2766 1069 2766 1631 
L 2766 1759 
L 2194 1759 
z
M 3341 1997 
L 3341 0 
L 2766 0 
L 2766 531 
Q 2569 213 2275 61 
Q 1981 -91 1556 -91 
Q 1019 -91 701 211 
Q 384 513 384 1019 
Q 384 1609 779 1909 
Q 1175 2209 1959 2209 
L 2766 2209 
L 2766 2266 
Q 2766 2663 2505 2880 
Q 2244 3097 1772 3097 
Q 1472 3097 1187 3025 
Q 903 2953 641 2809 
L 641 3341 
Q 956 3463 1253 3523 
Q 1550 3584 1831 3584 
Q 2591 3584 2966 3190 
Q 3341 2797 3341 1997 
z
" id="DejaVuSans-61" transform="scale(0.015625)"/>
        <path d="M 2834 3397 
L 2834 2853 
Q 2591 2978 2328 3040 
Q 2066 3103 1784 3103 
Q 1356 3103 1142 2972 
Q 928 2841 928 2578 
Q 928 2378 1081 2264 
Q 1234 2150 1697 2047 
L 1894 2003 
Q 2506 1872 2764 1633 
Q 3022 1394 3022 966 
Q 3022 478 2636 193 
Q 2250 -91 1575 -91 
Q 1294 -91 989 -36 
Q 684 19 347 128 
L 347 722 
Q 666 556 975 473 
Q 1284 391 1588 391 
Q 1994 391 2212 530 
Q 2431 669 2431 922 
Q 2431 1156 2273 1281 
Q 2116 1406 1581 1522 
L 1381 1569 
Q 847 1681 609 1914 
Q 372 2147 372 2553 
Q 372 3047 722 3315 
Q 1072 3584 1716 3584 
Q 2034 3584 2315 3537 
Q 2597 3491 2834 3397 
z
" id="DejaVuSans-73" transform="scale(0.015625)"/>
       </defs>
       <use xlink:href="#DejaVuSans-63"/>
       <use x="54.980469" xlink:href="#DejaVuSans-6c"/>
       <use x="82.763672" xlink:href="#DejaVuSans-61"/>
       <use x="144.042969" xlink:href="#DejaVuSans-73"/>
       <use x="196.142578" xlink:href="#DejaVuSans-73"/>
      </g>
     </g>
    </g>
    <g id="xtick_2">
     <g id="line2d_2">
      <g>
       <use style="stroke:#000000;stroke-width:0.8;" x="70.848274" xlink:href="#mc2067ab513" y="185.398125"/>
      </g>
     </g>
     <g id="text_2">
      <!-- 1 -->
      <g transform="translate(67.667024 199.996562)scale(0.1 -0.1)">
       <defs>
        <path d="M 794 531 
L 1825 531 
L 1825 4091 
L 703 3866 
L 703 4441 
L 1819 4666 
L 2450 4666 
L 2450 531 
L 3481 531 
L 3481 0 
L 794 0 
L 794 531 
z
" id="DejaVuSans-31" transform="scale(0.015625)"/>
       </defs>
       <use xlink:href="#DejaVuSans-31"/>
      </g>
     </g>
    </g>
    <g id="xtick_3">
     <g id="line2d_3">
      <g>
       <use style="stroke:#000000;stroke-width:0.8;" x="104.161707" xlink:href="#mc2067ab513" y="185.398125"/>
      </g>
     </g>
     <g id="text_3">
      <!-- 2 -->
      <g transform="translate(100.980457 199.996562)scale(0.1 -0.1)">
       <defs>
        <path d="M 1228 531 
L 3431 531 
L 3431 0 
L 469 0 
L 469 531 
Q 828 903 1448 1529 
Q 2069 2156 2228 2338 
Q 2531 2678 2651 2914 
Q 2772 3150 2772 3378 
Q 2772 3750 2511 3984 
Q 2250 4219 1831 4219 
Q 1534 4219 1204 4116 
Q 875 4013 500 3803 
L 500 4441 
Q 881 4594 1212 4672 
Q 1544 4750 1819 4750 
Q 2544 4750 2975 4387 
Q 3406 4025 3406 3419 
Q 3406 3131 3298 2873 
Q 3191 2616 2906 2266 
Q 2828 2175 2409 1742 
Q 1991 1309 1228 531 
z
" id="DejaVuSans-32" transform="scale(0.015625)"/>
       </defs>
       <use xlink:href="#DejaVuSans-32"/>
      </g>
     </g>
    </g>
    <g id="xtick_4">
     <g id="line2d_4">
      <g>
       <use style="stroke:#000000;stroke-width:0.8;" x="137.47514" xlink:href="#mc2067ab513" y="185.398125"/>
      </g>
     </g>
     <g id="text_4">
      <!-- 3 -->
      <g transform="translate(134.29389 199.996562)scale(0.1 -0.1)">
       <defs>
        <path d="M 2597 2516 
Q 3050 2419 3304 2112 
Q 3559 1806 3559 1356 
Q 3559 666 3084 287 
Q 2609 -91 1734 -91 
Q 1441 -91 1130 -33 
Q 819 25 488 141 
L 488 750 
Q 750 597 1062 519 
Q 1375 441 1716 441 
Q 2309 441 2620 675 
Q 2931 909 2931 1356 
Q 2931 1769 2642 2001 
Q 2353 2234 1838 2234 
L 1294 2234 
L 1294 2753 
L 1863 2753 
Q 2328 2753 2575 2939 
Q 2822 3125 2822 3475 
Q 2822 3834 2567 4026 
Q 2313 4219 1838 4219 
Q 1578 4219 1281 4162 
Q 984 4106 628 3988 
L 628 4550 
Q 988 4650 1302 4700 
Q 1616 4750 1894 4750 
Q 2613 4750 3031 4423 
Q 3450 4097 3450 3541 
Q 3450 3153 3228 2886 
Q 3006 2619 2597 2516 
z
" id="DejaVuSans-33" transform="scale(0.015625)"/>
       </defs>
       <use xlink:href="#DejaVuSans-33"/>
      </g>
     </g>
    </g>
    <g id="xtick_5">
     <g id="line2d_5">
      <g>
       <use style="stroke:#000000;stroke-width:0.8;" x="170.788573" xlink:href="#mc2067ab513" y="185.398125"/>
      </g>
     </g>
     <g id="text_5">
      <!-- 4 -->
      <g transform="translate(167.607323 199.996562)scale(0.1 -0.1)">
       <defs>
        <path d="M 2419 4116 
L 825 1625 
L 2419 1625 
L 2419 4116 
z
M 2253 4666 
L 3047 4666 
L 3047 1625 
L 3713 1625 
L 3713 1100 
L 3047 1100 
L 3047 0 
L 2419 0 
L 2419 1100 
L 313 1100 
L 313 1709 
L 2253 4666 
z
" id="DejaVuSans-34" transform="scale(0.015625)"/>
       </defs>
       <use xlink:href="#DejaVuSans-34"/>
      </g>
     </g>
    </g>
    <g id="xtick_6">
     <g id="line2d_6">
      <g>
       <use style="stroke:#000000;stroke-width:0.8;" x="204.102006" xlink:href="#mc2067ab513" y="185.398125"/>
      </g>
     </g>
     <g id="text_6">
      <!-- 5 -->
      <g transform="translate(200.920756 199.996562)scale(0.1 -0.1)">
       <defs>
        <path d="M 691 4666 
L 3169 4666 
L 3169 4134 
L 1269 4134 
L 1269 2991 
Q 1406 3038 1543 3061 
Q 1681 3084 1819 3084 
Q 2600 3084 3056 2656 
Q 3513 2228 3513 1497 
Q 3513 744 3044 326 
Q 2575 -91 1722 -91 
Q 1428 -91 1123 -41 
Q 819 9 494 109 
L 494 744 
Q 775 591 1075 516 
Q 1375 441 1709 441 
Q 2250 441 2565 725 
Q 2881 1009 2881 1497 
Q 2881 1984 2565 2268 
Q 2250 2553 1709 2553 
Q 1456 2553 1204 2497 
Q 953 2441 691 2322 
L 691 4666 
z
" id="DejaVuSans-35" transform="scale(0.015625)"/>
       </defs>
       <use xlink:href="#DejaVuSans-35"/>
      </g>
     </g>
    </g>
    <g id="text_7">
     <!-- CV iteration -->
     <g transform="translate(102.854688 213.674688)scale(0.1 -0.1)">
      <defs>
       <path d="M 4122 4306 
L 4122 3641 
Q 3803 3938 3442 4084 
Q 3081 4231 2675 4231 
Q 1875 4231 1450 3742 
Q 1025 3253 1025 2328 
Q 1025 1406 1450 917 
Q 1875 428 2675 428 
Q 3081 428 3442 575 
Q 3803 722 4122 1019 
L 4122 359 
Q 3791 134 3420 21 
Q 3050 -91 2638 -91 
Q 1578 -91 968 557 
Q 359 1206 359 2328 
Q 359 3453 968 4101 
Q 1578 4750 2638 4750 
Q 3056 4750 3426 4639 
Q 3797 4528 4122 4306 
z
" id="DejaVuSans-43" transform="scale(0.015625)"/>
       <path d="M 1831 0 
L 50 4666 
L 709 4666 
L 2188 738 
L 3669 4666 
L 4325 4666 
L 2547 0 
L 1831 0 
z
" id="DejaVuSans-56" transform="scale(0.015625)"/>
       <path id="DejaVuSans-20" transform="scale(0.015625)"/>
       <path d="M 603 3500 
L 1178 3500 
L 1178 0 
L 603 0 
L 603 3500 
z
M 603 4863 
L 1178 4863 
L 1178 4134 
L 603 4134 
L 603 4863 
z
" id="DejaVuSans-69" transform="scale(0.015625)"/>
       <path d="M 1172 4494 
L 1172 3500 
L 2356 3500 
L 2356 3053 
L 1172 3053 
L 1172 1153 
Q 1172 725 1289 603 
Q 1406 481 1766 481 
L 2356 481 
L 2356 0 
L 1766 0 
Q 1100 0 847 248 
Q 594 497 594 1153 
L 594 3053 
L 172 3053 
L 172 3500 
L 594 3500 
L 594 4494 
L 1172 4494 
z
" id="DejaVuSans-74" transform="scale(0.015625)"/>
       <path d="M 3597 1894 
L 3597 1613 
L 953 1613 
Q 991 1019 1311 708 
Q 1631 397 2203 397 
Q 2534 397 2845 478 
Q 3156 559 3463 722 
L 3463 178 
Q 3153 47 2828 -22 
Q 2503 -91 2169 -91 
Q 1331 -91 842 396 
Q 353 884 353 1716 
Q 353 2575 817 3079 
Q 1281 3584 2069 3584 
Q 2775 3584 3186 3129 
Q 3597 2675 3597 1894 
z
M 3022 2063 
Q 3016 2534 2758 2815 
Q 2500 3097 2075 3097 
Q 1594 3097 1305 2825 
Q 1016 2553 972 2059 
L 3022 2063 
z
" id="DejaVuSans-65" transform="scale(0.015625)"/>
       <path d="M 2631 2963 
Q 2534 3019 2420 3045 
Q 2306 3072 2169 3072 
Q 1681 3072 1420 2755 
Q 1159 2438 1159 1844 
L 1159 0 
L 581 0 
L 581 3500 
L 1159 3500 
L 1159 2956 
Q 1341 3275 1631 3429 
Q 1922 3584 2338 3584 
Q 2397 3584 2469 3576 
Q 2541 3569 2628 3553 
L 2631 2963 
z
" id="DejaVuSans-72" transform="scale(0.015625)"/>
       <path d="M 1959 3097 
Q 1497 3097 1228 2736 
Q 959 2375 959 1747 
Q 959 1119 1226 758 
Q 1494 397 1959 397 
Q 2419 397 2687 759 
Q 2956 1122 2956 1747 
Q 2956 2369 2687 2733 
Q 2419 3097 1959 3097 
z
M 1959 3584 
Q 2709 3584 3137 3096 
Q 3566 2609 3566 1747 
Q 3566 888 3137 398 
Q 2709 -91 1959 -91 
Q 1206 -91 779 398 
Q 353 888 353 1747 
Q 353 2609 779 3096 
Q 1206 3584 1959 3584 
z
" id="DejaVuSans-6f" transform="scale(0.015625)"/>
       <path d="M 3513 2113 
L 3513 0 
L 2938 0 
L 2938 2094 
Q 2938 2591 2744 2837 
Q 2550 3084 2163 3084 
Q 1697 3084 1428 2787 
Q 1159 2491 1159 1978 
L 1159 0 
L 581 0 
L 581 3500 
L 1159 3500 
L 1159 2956 
Q 1366 3272 1645 3428 
Q 1925 3584 2291 3584 
Q 2894 3584 3203 3211 
Q 3513 2838 3513 2113 
z
" id="DejaVuSans-6e" transform="scale(0.015625)"/>
      </defs>
      <use xlink:href="#DejaVuSans-43"/>
      <use x="69.824219" xlink:href="#DejaVuSans-56"/>
      <use x="138.232422" xlink:href="#DejaVuSans-20"/>
      <use x="170.019531" xlink:href="#DejaVuSans-69"/>
      <use x="197.802734" xlink:href="#DejaVuSans-74"/>
      <use x="237.011719" xlink:href="#DejaVuSans-65"/>
      <use x="298.535156" xlink:href="#DejaVuSans-72"/>
      <use x="339.648438" xlink:href="#DejaVuSans-61"/>
      <use x="400.927734" xlink:href="#DejaVuSans-74"/>
      <use x="440.136719" xlink:href="#DejaVuSans-69"/>
      <use x="467.919922" xlink:href="#DejaVuSans-6f"/>
      <use x="529.101562" xlink:href="#DejaVuSans-6e"/>
     </g>
    </g>
   </g>
   <g id="matplotlib.axis_2">
    <g id="text_8">
     <!-- Sample index -->
     <g transform="translate(14.798438 137.876094)rotate(-90)scale(0.1 -0.1)">
      <defs>
       <path d="M 3425 4513 
L 3425 3897 
Q 3066 4069 2747 4153 
Q 2428 4238 2131 4238 
Q 1616 4238 1336 4038 
Q 1056 3838 1056 3469 
Q 1056 3159 1242 3001 
Q 1428 2844 1947 2747 
L 2328 2669 
Q 3034 2534 3370 2195 
Q 3706 1856 3706 1288 
Q 3706 609 3251 259 
Q 2797 -91 1919 -91 
Q 1588 -91 1214 -16 
Q 841 59 441 206 
L 441 856 
Q 825 641 1194 531 
Q 1563 422 1919 422 
Q 2459 422 2753 634 
Q 3047 847 3047 1241 
Q 3047 1584 2836 1778 
Q 2625 1972 2144 2069 
L 1759 2144 
Q 1053 2284 737 2584 
Q 422 2884 422 3419 
Q 422 4038 858 4394 
Q 1294 4750 2059 4750 
Q 2388 4750 2728 4690 
Q 3069 4631 3425 4513 
z
" id="DejaVuSans-53" transform="scale(0.015625)"/>
       <path d="M 3328 2828 
Q 3544 3216 3844 3400 
Q 4144 3584 4550 3584 
Q 5097 3584 5394 3201 
Q 5691 2819 5691 2113 
L 5691 0 
L 5113 0 
L 5113 2094 
Q 5113 2597 4934 2840 
Q 4756 3084 4391 3084 
Q 3944 3084 3684 2787 
Q 3425 2491 3425 1978 
L 3425 0 
L 2847 0 
L 2847 2094 
Q 2847 2600 2669 2842 
Q 2491 3084 2119 3084 
Q 1678 3084 1418 2786 
Q 1159 2488 1159 1978 
L 1159 0 
L 581 0 
L 581 3500 
L 1159 3500 
L 1159 2956 
Q 1356 3278 1631 3431 
Q 1906 3584 2284 3584 
Q 2666 3584 2933 3390 
Q 3200 3197 3328 2828 
z
" id="DejaVuSans-6d" transform="scale(0.015625)"/>
       <path d="M 1159 525 
L 1159 -1331 
L 581 -1331 
L 581 3500 
L 1159 3500 
L 1159 2969 
Q 1341 3281 1617 3432 
Q 1894 3584 2278 3584 
Q 2916 3584 3314 3078 
Q 3713 2572 3713 1747 
Q 3713 922 3314 415 
Q 2916 -91 2278 -91 
Q 1894 -91 1617 61 
Q 1341 213 1159 525 
z
M 3116 1747 
Q 3116 2381 2855 2742 
Q 2594 3103 2138 3103 
Q 1681 3103 1420 2742 
Q 1159 2381 1159 1747 
Q 1159 1113 1420 752 
Q 1681 391 2138 391 
Q 2594 391 2855 752 
Q 3116 1113 3116 1747 
z
" id="DejaVuSans-70" transform="scale(0.015625)"/>
       <path d="M 2906 2969 
L 2906 4863 
L 3481 4863 
L 3481 0 
L 2906 0 
L 2906 525 
Q 2725 213 2448 61 
Q 2172 -91 1784 -91 
Q 1150 -91 751 415 
Q 353 922 353 1747 
Q 353 2572 751 3078 
Q 1150 3584 1784 3584 
Q 2172 3584 2448 3432 
Q 2725 3281 2906 2969 
z
M 947 1747 
Q 947 1113 1208 752 
Q 1469 391 1925 391 
Q 2381 391 2643 752 
Q 2906 1113 2906 1747 
Q 2906 2381 2643 2742 
Q 2381 3103 1925 3103 
Q 1469 3103 1208 2742 
Q 947 2381 947 1747 
z
" id="DejaVuSans-64" transform="scale(0.015625)"/>
       <path d="M 3513 3500 
L 2247 1797 
L 3578 0 
L 2900 0 
L 1881 1375 
L 863 0 
L 184 0 
L 1544 1831 
L 300 3500 
L 978 3500 
L 1906 2253 
L 2834 3500 
L 3513 3500 
z
" id="DejaVuSans-78" transform="scale(0.015625)"/>
      </defs>
      <use xlink:href="#DejaVuSans-53"/>
      <use x="63.476562" xlink:href="#DejaVuSans-61"/>
      <use x="124.755859" xlink:href="#DejaVuSans-6d"/>
      <use x="222.167969" xlink:href="#DejaVuSans-70"/>
      <use x="285.644531" xlink:href="#DejaVuSans-6c"/>
      <use x="313.427734" xlink:href="#DejaVuSans-65"/>
      <use x="374.951172" xlink:href="#DejaVuSans-20"/>
      <use x="406.738281" xlink:href="#DejaVuSans-69"/>
      <use x="434.521484" xlink:href="#DejaVuSans-6e"/>
      <use x="497.900391" xlink:href="#DejaVuSans-64"/>
      <use x="561.376953" xlink:href="#DejaVuSans-65"/>
      <use x="621.150391" xlink:href="#DejaVuSans-78"/>
     </g>
    </g>
   </g>
   <g id="text_9">
    <!-- TimeSeriesSplit(5, max_train_size=20) -->
    <g transform="translate(16.395 16.318125)scale(0.12 -0.12)">
     <defs>
      <path d="M -19 4666 
L 3928 4666 
L 3928 4134 
L 2272 4134 
L 2272 0 
L 1638 0 
L 1638 4134 
L -19 4134 
L -19 4666 
z
" id="DejaVuSans-54" transform="scale(0.015625)"/>
      <path d="M 1984 4856 
Q 1566 4138 1362 3434 
Q 1159 2731 1159 2009 
Q 1159 1288 1364 580 
Q 1569 -128 1984 -844 
L 1484 -844 
Q 1016 -109 783 600 
Q 550 1309 550 2009 
Q 550 2706 781 3412 
Q 1013 4119 1484 4856 
L 1984 4856 
z
" id="DejaVuSans-28" transform="scale(0.015625)"/>
      <path d="M 750 794 
L 1409 794 
L 1409 256 
L 897 -744 
L 494 -744 
L 750 256 
L 750 794 
z
" id="DejaVuSans-2c" transform="scale(0.015625)"/>
      <path d="M 3263 -1063 
L 3263 -1509 
L -63 -1509 
L -63 -1063 
L 3263 -1063 
z
" id="DejaVuSans-5f" transform="scale(0.015625)"/>
      <path d="M 353 3500 
L 3084 3500 
L 3084 2975 
L 922 459 
L 3084 459 
L 3084 0 
L 275 0 
L 275 525 
L 2438 3041 
L 353 3041 
L 353 3500 
z
" id="DejaVuSans-7a" transform="scale(0.015625)"/>
      <path d="M 678 2906 
L 4684 2906 
L 4684 2381 
L 678 2381 
L 678 2906 
z
M 678 1631 
L 4684 1631 
L 4684 1100 
L 678 1100 
L 678 1631 
z
" id="DejaVuSans-3d" transform="scale(0.015625)"/>
      <path d="M 2034 4250 
Q 1547 4250 1301 3770 
Q 1056 3291 1056 2328 
Q 1056 1369 1301 889 
Q 1547 409 2034 409 
Q 2525 409 2770 889 
Q 3016 1369 3016 2328 
Q 3016 3291 2770 3770 
Q 2525 4250 2034 4250 
z
M 2034 4750 
Q 2819 4750 3233 4129 
Q 3647 3509 3647 2328 
Q 3647 1150 3233 529 
Q 2819 -91 2034 -91 
Q 1250 -91 836 529 
Q 422 1150 422 2328 
Q 422 3509 836 4129 
Q 1250 4750 2034 4750 
z
" id="DejaVuSans-30" transform="scale(0.015625)"/>
      <path d="M 513 4856 
L 1013 4856 
Q 1481 4119 1714 3412 
Q 1947 2706 1947 2009 
Q 1947 1309 1714 600 
Q 1481 -109 1013 -844 
L 513 -844 
Q 928 -128 1133 580 
Q 1338 1288 1338 2009 
Q 1338 2731 1133 3434 
Q 928 4138 513 4856 
z
" id="DejaVuSans-29" transform="scale(0.015625)"/>
     </defs>
     <use xlink:href="#DejaVuSans-54"/>
     <use x="57.958984" xlink:href="#DejaVuSans-69"/>
     <use x="85.742188" xlink:href="#DejaVuSans-6d"/>
     <use x="183.154297" xlink:href="#DejaVuSans-65"/>
     <use x="244.677734" xlink:href="#DejaVuSans-53"/>
     <use x="308.154297" xlink:href="#DejaVuSans-65"/>
     <use x="369.677734" xlink:href="#DejaVuSans-72"/>
     <use x="410.791016" xlink:href="#DejaVuSans-69"/>
     <use x="438.574219" xlink:href="#DejaVuSans-65"/>
     <use x="500.097656" xlink:href="#DejaVuSans-73"/>
     <use x="552.197266" xlink:href="#DejaVuSans-53"/>
     <use x="615.673828" xlink:href="#DejaVuSans-70"/>
     <use x="679.150391" xlink:href="#DejaVuSans-6c"/>
     <use x="706.933594" xlink:href="#DejaVuSans-69"/>
     <use x="734.716797" xlink:href="#DejaVuSans-74"/>
     <use x="773.925781" xlink:href="#DejaVuSans-28"/>
     <use x="812.939453" xlink:href="#DejaVuSans-35"/>
     <use x="876.5625" xlink:href="#DejaVuSans-2c"/>
     <use x="908.349609" xlink:href="#DejaVuSans-20"/>
     <use x="940.136719" xlink:href="#DejaVuSans-6d"/>
     <use x="1037.548828" xlink:href="#DejaVuSans-61"/>
     <use x="1098.828125" xlink:href="#DejaVuSans-78"/>
     <use x="1158.007812" xlink:href="#DejaVuSans-5f"/>
     <use x="1208.007812" xlink:href="#DejaVuSans-74"/>
     <use x="1247.216797" xlink:href="#DejaVuSans-72"/>
     <use x="1288.330078" xlink:href="#DejaVuSans-61"/>
     <use x="1349.609375" xlink:href="#DejaVuSans-69"/>
     <use x="1377.392578" xlink:href="#DejaVuSans-6e"/>
     <use x="1440.771484" xlink:href="#DejaVuSans-5f"/>
     <use x="1490.771484" xlink:href="#DejaVuSans-73"/>
     <use x="1542.871094" xlink:href="#DejaVuSans-69"/>
     <use x="1570.654297" xlink:href="#DejaVuSans-7a"/>
     <use x="1623.144531" xlink:href="#DejaVuSans-65"/>
     <use x="1684.667969" xlink:href="#DejaVuSans-3d"/>
     <use x="1768.457031" xlink:href="#DejaVuSans-32"/>
     <use x="1832.080078" xlink:href="#DejaVuSans-30"/>
     <use x="1895.703125" xlink:href="#DejaVuSans-29"/>
    </g>
   </g>
   <g id="legend_1">
    <g id="patch_3">
     <path d="M 250.542125 54.934125 
L 350.384313 54.934125 
Q 352.384313 54.934125 352.384313 52.934125 
L 352.384313 24.577875 
Q 352.384313 22.577875 350.384313 22.577875 
L 250.542125 22.577875 
Q 248.542125 22.577875 248.542125 24.577875 
L 248.542125 52.934125 
Q 248.542125 54.934125 250.542125 54.934125 
z
" style="fill:#ffffff;opacity:0.8;stroke:#cccccc;stroke-linejoin:miter;"/>
    </g>
    <g id="patch_4">
     <path d="M 252.542125 34.176312 
L 272.542125 34.176312 
L 272.542125 27.176312 
L 252.542125 27.176312 
z
" style="fill:#ee8468;stroke:#ee8468;stroke-linejoin:miter;"/>
    </g>
    <g id="text_10">
     <!-- Validation set -->
     <g transform="translate(280.542125 34.176312)scale(0.1 -0.1)">
      <use xlink:href="#DejaVuSans-56"/>
      <use x="60.658203" xlink:href="#DejaVuSans-61"/>
      <use x="121.9375" xlink:href="#DejaVuSans-6c"/>
      <use x="149.720703" xlink:href="#DejaVuSans-69"/>
      <use x="177.503906" xlink:href="#DejaVuSans-64"/>
      <use x="240.980469" xlink:href="#DejaVuSans-61"/>
      <use x="302.259766" xlink:href="#DejaVuSans-74"/>
      <use x="341.46875" xlink:href="#DejaVuSans-69"/>
      <use x="369.251953" xlink:href="#DejaVuSans-6f"/>
      <use x="430.433594" xlink:href="#DejaVuSans-6e"/>
      <use x="493.8125" xlink:href="#DejaVuSans-20"/>
      <use x="525.599609" xlink:href="#DejaVuSans-73"/>
      <use x="577.699219" xlink:href="#DejaVuSans-65"/>
      <use x="639.222656" xlink:href="#DejaVuSans-74"/>
     </g>
    </g>
    <g id="patch_5">
     <path d="M 252.542125 48.854437 
L 272.542125 48.854437 
L 272.542125 41.854437 
L 252.542125 41.854437 
z
" style="fill:#7b9ff9;stroke:#7b9ff9;stroke-linejoin:miter;"/>
    </g>
    <g id="text_11">
     <!-- Training set -->
     <g transform="translate(280.542125 48.854437)scale(0.1 -0.1)">
      <defs>
       <path d="M 2906 1791 
Q 2906 2416 2648 2759 
Q 2391 3103 1925 3103 
Q 1463 3103 1205 2759 
Q 947 2416 947 1791 
Q 947 1169 1205 825 
Q 1463 481 1925 481 
Q 2391 481 2648 825 
Q 2906 1169 2906 1791 
z
M 3481 434 
Q 3481 -459 3084 -895 
Q 2688 -1331 1869 -1331 
Q 1566 -1331 1297 -1286 
Q 1028 -1241 775 -1147 
L 775 -588 
Q 1028 -725 1275 -790 
Q 1522 -856 1778 -856 
Q 2344 -856 2625 -561 
Q 2906 -266 2906 331 
L 2906 616 
Q 2728 306 2450 153 
Q 2172 0 1784 0 
Q 1141 0 747 490 
Q 353 981 353 1791 
Q 353 2603 747 3093 
Q 1141 3584 1784 3584 
Q 2172 3584 2450 3431 
Q 2728 3278 2906 2969 
L 2906 3500 
L 3481 3500 
L 3481 434 
z
" id="DejaVuSans-67" transform="scale(0.015625)"/>
      </defs>
      <use xlink:href="#DejaVuSans-54"/>
      <use x="46.333984" xlink:href="#DejaVuSans-72"/>
      <use x="87.447266" xlink:href="#DejaVuSans-61"/>
      <use x="148.726562" xlink:href="#DejaVuSans-69"/>
      <use x="176.509766" xlink:href="#DejaVuSans-6e"/>
      <use x="239.888672" xlink:href="#DejaVuSans-69"/>
      <use x="267.671875" xlink:href="#DejaVuSans-6e"/>
      <use x="331.050781" xlink:href="#DejaVuSans-67"/>
      <use x="394.527344" xlink:href="#DejaVuSans-20"/>
      <use x="426.314453" xlink:href="#DejaVuSans-73"/>
      <use x="478.414062" xlink:href="#DejaVuSans-65"/>
      <use x="539.9375" xlink:href="#DejaVuSans-74"/>
     </g>
    </g>
   </g>
  </g>
 </g>
 <defs>
  <clipPath id="p2b401ef96c">
   <rect height="163.08" width="223.2" x="20.878125" y="22.318125"/>
  </clipPath>
 </defs>
</svg>
